# xmcd CD database file
#
# Track frame offsets:
#	150
#	5930
#	26582
#	48522
#	71745
#	96602
#	110382
#	134127
#	155547
#	181207
#	205470
#	229102
#	252110
#
# Disc length: 3621 seconds
#
# Revision: 2
# Processed by: cddbd v1.5.2PL0 Copyright (c) Steve Scherf et al.
# Submitted via: CDex 1.51
#
DISCID=c10e230d
DTITLE=MEN'S 5 - バーチャル･ベスト！
DYEAR=1997
DGENRE=コミックソング
TTITLE0=MEN'S 5のテーマ
TTITLE1=とってもウマナミ
TTITLE2=IN THE GERO ?
TTITLE3=愛の背負い投げ “一本！”
TTITLE4=レッツ！スッパダカー
TTITLE5=YOYON'S WORLD （ノーカット）
TTITLE6=恋のブランニュー･ラーゲ
TTITLE7=ソウルお父さん
TTITLE8=サンディー （本名はヨシヲ）
TTITLE9=ノー･シークレット･ラブ
TTITLE10=うんこはきれい
TTITLE11=正常位よ永遠なれ !!
TTITLE12=“ヘーコキ” ましたね
EXTD=YEAR: 1997
EXTT0=
EXTT1=
EXTT2=
EXTT3=
EXTT4=
EXTT5=
EXTT6=
EXTT7=
EXTT8=
EXTT9=
EXTT10=
EXTT11=
EXTT12=
PLAYORDER=
